<mxfile host="app.diagrams.net" agent="Mozilla/5.0 (Windows NT 10.0; Win64; x64) AppleWebKit/537.36 (KHTML, like Gecko) Chrome/131.0.0.0 Safari/537.36" version="25.0.3">
  <diagram name="페이지-1" id="1k0-j0dPdx_pitf_sdkS">
    <mxGraphModel dx="1908" dy="1162" grid="1" gridSize="10" guides="1" tooltips="1" connect="1" arrows="1" fold="1" page="1" pageScale="1" pageWidth="1169" pageHeight="827" math="0" shadow="0">
      <root>
        <mxCell id="0" />
        <mxCell id="bl2LzJDID7CKvUJ2VzMa-29" style="" parent="0" />
        <mxCell id="xvKqIbw96GqFToLOWjSm-136" value="" style="rounded=1;arcSize=9;align=left;spacingLeft=5;strokeColor=#4C9AFF;html=1;strokeWidth=2;fontSize=12;fillColor=none;movable=0;resizable=0;rotatable=0;deletable=0;editable=0;locked=1;connectable=0;" vertex="1" parent="bl2LzJDID7CKvUJ2VzMa-29">
          <mxGeometry x="1200" y="60" width="1120" height="740" as="geometry" />
        </mxCell>
        <mxCell id="xvKqIbw96GqFToLOWjSm-106" value="&lt;font style=&quot;font-size: 16px;&quot;&gt;&amp;nbsp; &amp;nbsp;Lightsail VPC&lt;/font&gt;" style="sketch=0;outlineConnect=0;gradientColor=none;html=1;whiteSpace=wrap;fontSize=12;fontStyle=0;shape=mxgraph.aws4.group;grIcon=mxgraph.aws4.group_vpc;strokeColor=#B6BABF;fillColor=none;verticalAlign=top;align=left;spacingLeft=30;fontColor=#B6BABF;dashed=0;" vertex="1" parent="bl2LzJDID7CKvUJ2VzMa-29">
          <mxGeometry x="1716" y="79" width="560" height="713" as="geometry" />
        </mxCell>
        <mxCell id="-sPoOlOqM3EWKsqca_SR-43" value="Public subnet" style="points=[[0,0],[0.25,0],[0.5,0],[0.75,0],[1,0],[1,0.25],[1,0.5],[1,0.75],[1,1],[0.75,1],[0.5,1],[0.25,1],[0,1],[0,0.75],[0,0.5],[0,0.25]];outlineConnect=0;gradientColor=none;html=1;whiteSpace=wrap;fontSize=12;fontStyle=0;container=1;pointerEvents=0;collapsible=0;recursiveResize=0;shape=mxgraph.aws4.group;grIcon=mxgraph.aws4.group_security_group;grStroke=0;strokeColor=#7AA116;fillColor=#F2F6E8;verticalAlign=top;align=left;spacingLeft=30;fontColor=#248814;dashed=0;" parent="bl2LzJDID7CKvUJ2VzMa-29" vertex="1">
          <mxGeometry x="900" y="920" width="210" height="570" as="geometry" />
        </mxCell>
        <mxCell id="-sPoOlOqM3EWKsqca_SR-78" style="edgeStyle=orthogonalEdgeStyle;rounded=0;orthogonalLoop=1;jettySize=auto;html=1;" parent="-sPoOlOqM3EWKsqca_SR-43" source="-sPoOlOqM3EWKsqca_SR-50" edge="1">
          <mxGeometry relative="1" as="geometry">
            <mxPoint x="-770" y="540" as="targetPoint" />
            <Array as="points">
              <mxPoint x="62" y="280" />
              <mxPoint x="220" y="280" />
              <mxPoint x="220" y="580" />
              <mxPoint x="-770" y="580" />
            </Array>
          </mxGeometry>
        </mxCell>
        <mxCell id="-sPoOlOqM3EWKsqca_SR-50" value="V1.0" style="sketch=0;outlineConnect=0;fontColor=#232F3E;gradientColor=none;fillColor=#7AA116;strokeColor=none;dashed=0;verticalLabelPosition=bottom;verticalAlign=top;align=center;html=1;fontSize=12;fontStyle=0;aspect=fixed;pointerEvents=1;shape=mxgraph.aws4.bucket;" parent="-sPoOlOqM3EWKsqca_SR-43" vertex="1">
          <mxGeometry x="34" y="326" width="55.77" height="58" as="geometry" />
        </mxCell>
        <mxCell id="-sPoOlOqM3EWKsqca_SR-51" value="V2.0" style="sketch=0;outlineConnect=0;fillColor=#f8cecc;strokeColor=#b85450;dashed=0;verticalLabelPosition=bottom;verticalAlign=top;align=center;html=1;fontSize=12;fontStyle=0;aspect=fixed;pointerEvents=1;shape=mxgraph.aws4.bucket;" parent="-sPoOlOqM3EWKsqca_SR-43" vertex="1">
          <mxGeometry x="120" y="326" width="55.77" height="58" as="geometry" />
        </mxCell>
        <mxCell id="-sPoOlOqM3EWKsqca_SR-30" value="Private subnet&amp;nbsp;" style="points=[[0,0],[0.25,0],[0.5,0],[0.75,0],[1,0],[1,0.25],[1,0.5],[1,0.75],[1,1],[0.75,1],[0.5,1],[0.25,1],[0,1],[0,0.75],[0,0.5],[0,0.25]];outlineConnect=0;gradientColor=none;html=1;whiteSpace=wrap;fontSize=12;fontStyle=0;container=1;pointerEvents=0;collapsible=0;recursiveResize=0;shape=mxgraph.aws4.group;grIcon=mxgraph.aws4.group_security_group;grStroke=0;strokeColor=#00A4A6;fillColor=#E6F6F7;verticalAlign=top;align=left;spacingLeft=30;fontColor=#147EBA;dashed=0;" parent="bl2LzJDID7CKvUJ2VzMa-29" vertex="1">
          <mxGeometry x="674" y="920" width="156" height="570" as="geometry" />
        </mxCell>
        <mxCell id="-sPoOlOqM3EWKsqca_SR-31" value="S3 Bucket" style="sketch=0;outlineConnect=0;fontColor=#232F3E;gradientColor=none;fillColor=#7AA116;strokeColor=none;dashed=0;verticalLabelPosition=bottom;verticalAlign=top;align=center;html=1;fontSize=12;fontStyle=0;aspect=fixed;pointerEvents=1;shape=mxgraph.aws4.bucket;" parent="-sPoOlOqM3EWKsqca_SR-30" vertex="1">
          <mxGeometry x="50.12" y="64" width="55.77" height="58" as="geometry" />
        </mxCell>
        <mxCell id="-sPoOlOqM3EWKsqca_SR-32" value="&#xa;&lt;span style=&quot;color: rgb(35, 47, 62); font-family: Helvetica; font-size: 12px; font-style: normal; font-variant-ligatures: normal; font-variant-caps: normal; font-weight: 400; letter-spacing: normal; orphans: 2; text-align: center; text-indent: 0px; text-transform: none; widows: 2; word-spacing: 0px; -webkit-text-stroke-width: 0px; white-space: nowrap; background-color: rgb(251, 251, 251); text-decoration-thickness: initial; text-decoration-style: initial; text-decoration-color: initial; display: inline !important; float: none;&quot;&gt;S3 Bucket&lt;/span&gt;&#xa;&#xa;" style="sketch=0;outlineConnect=0;fontColor=#232F3E;gradientColor=none;fillColor=#7AA116;strokeColor=none;dashed=0;verticalLabelPosition=bottom;verticalAlign=top;align=center;html=1;fontSize=12;fontStyle=0;aspect=fixed;pointerEvents=1;shape=mxgraph.aws4.bucket;" parent="-sPoOlOqM3EWKsqca_SR-30" vertex="1">
          <mxGeometry x="50.120000000000005" y="193" width="55.77" height="58" as="geometry" />
        </mxCell>
        <mxCell id="-sPoOlOqM3EWKsqca_SR-33" value="&#xa;&lt;span style=&quot;color: rgb(35, 47, 62); font-family: Helvetica; font-size: 12px; font-style: normal; font-variant-ligatures: normal; font-variant-caps: normal; font-weight: 400; letter-spacing: normal; orphans: 2; text-align: center; text-indent: 0px; text-transform: none; widows: 2; word-spacing: 0px; -webkit-text-stroke-width: 0px; white-space: nowrap; background-color: rgb(251, 251, 251); text-decoration-thickness: initial; text-decoration-style: initial; text-decoration-color: initial; display: inline !important; float: none;&quot;&gt;S3 Bucket&lt;/span&gt;&#xa;&#xa;" style="sketch=0;outlineConnect=0;fontColor=#232F3E;gradientColor=none;fillColor=#7AA116;strokeColor=none;dashed=0;verticalLabelPosition=bottom;verticalAlign=top;align=center;html=1;fontSize=12;fontStyle=0;aspect=fixed;pointerEvents=1;shape=mxgraph.aws4.bucket;" parent="-sPoOlOqM3EWKsqca_SR-30" vertex="1">
          <mxGeometry x="50.120000000000005" y="326" width="55.77" height="58" as="geometry" />
        </mxCell>
        <mxCell id="bl2LzJDID7CKvUJ2VzMa-30" value="" style="rounded=1;arcSize=9;align=left;spacingLeft=5;strokeColor=#4C9AFF;html=1;strokeWidth=2;fontSize=12;fillColor=none;movable=1;resizable=1;rotatable=1;deletable=1;editable=1;locked=0;connectable=1;" parent="bl2LzJDID7CKvUJ2VzMa-29" vertex="1">
          <mxGeometry x="20" y="60" width="1120" height="740" as="geometry" />
        </mxCell>
        <mxCell id="bl2LzJDID7CKvUJ2VzMa-31" value="&lt;font style=&quot;font-size: 33px;&quot;&gt;백엔드 API&amp;nbsp;Prod&amp;nbsp;서버 로드밸런싱 오토스케일링 아키텍처&lt;/font&gt;" style="fillColor=none;strokeColor=none;html=1;fontSize=12;fontStyle=0;align=center;fontColor=#596780;fontStyle=1;fontSize=11" parent="bl2LzJDID7CKvUJ2VzMa-29" vertex="1">
          <mxGeometry x="47" y="26" width="1063" height="20" as="geometry" />
        </mxCell>
        <mxCell id="bl2LzJDID7CKvUJ2VzMa-32" value="AZ가용영역 a2" style="sketch=0;outlineConnect=0;gradientColor=none;html=1;whiteSpace=wrap;fontSize=12;fontStyle=0;shape=mxgraph.aws4.group;grIcon=mxgraph.aws4.group_region;strokeColor=#879196;fillColor=none;verticalAlign=top;align=left;spacingLeft=30;fontColor=#879196;dashed=1;noLabel=0;" parent="bl2LzJDID7CKvUJ2VzMa-29" vertex="1">
          <mxGeometry x="640" y="117" width="450" height="290" as="geometry" />
        </mxCell>
        <mxCell id="bl2LzJDID7CKvUJ2VzMa-33" value="Private subnet" style="points=[[0,0],[0.25,0],[0.5,0],[0.75,0],[1,0],[1,0.25],[1,0.5],[1,0.75],[1,1],[0.75,1],[0.5,1],[0.25,1],[0,1],[0,0.75],[0,0.5],[0,0.25]];outlineConnect=0;html=1;whiteSpace=wrap;fontSize=12;fontStyle=0;container=1;pointerEvents=0;collapsible=0;recursiveResize=0;shape=mxgraph.aws4.group;grIcon=mxgraph.aws4.group_security_group;grStroke=0;strokeColor=#b85450;fillColor=#f8cecc;verticalAlign=top;align=left;spacingLeft=30;dashed=0;" parent="bl2LzJDID7CKvUJ2VzMa-29" vertex="1">
          <mxGeometry x="674" y="142" width="396" height="260" as="geometry" />
        </mxCell>
        <mxCell id="bl2LzJDID7CKvUJ2VzMa-34" value="Auto Scaling group" style="points=[[0,0],[0.25,0],[0.5,0],[0.75,0],[1,0],[1,0.25],[1,0.5],[1,0.75],[1,1],[0.75,1],[0.5,1],[0.25,1],[0,1],[0,0.75],[0,0.5],[0,0.25]];outlineConnect=0;gradientColor=none;html=1;whiteSpace=wrap;fontSize=12;fontStyle=0;container=1;pointerEvents=0;collapsible=0;recursiveResize=0;shape=mxgraph.aws4.groupCenter;grIcon=mxgraph.aws4.group_auto_scaling_group;grStroke=1;strokeColor=#D86613;fillColor=none;verticalAlign=top;align=center;fontColor=#D86613;dashed=1;spacingTop=25;movable=1;resizable=1;rotatable=1;deletable=1;editable=1;locked=0;connectable=1;" parent="bl2LzJDID7CKvUJ2VzMa-29" vertex="1">
          <mxGeometry x="700" y="180" width="240" height="210" as="geometry" />
        </mxCell>
        <mxCell id="bl2LzJDID7CKvUJ2VzMa-35" value="AZ가용영역 a2" style="sketch=0;outlineConnect=0;gradientColor=none;html=1;whiteSpace=wrap;fontSize=12;fontStyle=0;shape=mxgraph.aws4.group;grIcon=mxgraph.aws4.group_region;strokeColor=#879196;fillColor=none;verticalAlign=top;align=left;spacingLeft=30;fontColor=#879196;dashed=1;noLabel=0;" parent="bl2LzJDID7CKvUJ2VzMa-29" vertex="1">
          <mxGeometry x="640" y="452" width="450" height="290" as="geometry" />
        </mxCell>
        <mxCell id="bl2LzJDID7CKvUJ2VzMa-36" value="Private subnet" style="points=[[0,0],[0.25,0],[0.5,0],[0.75,0],[1,0],[1,0.25],[1,0.5],[1,0.75],[1,1],[0.75,1],[0.5,1],[0.25,1],[0,1],[0,0.75],[0,0.5],[0,0.25]];outlineConnect=0;html=1;whiteSpace=wrap;fontSize=12;fontStyle=0;container=1;pointerEvents=0;collapsible=0;recursiveResize=0;shape=mxgraph.aws4.group;grIcon=mxgraph.aws4.group_security_group;grStroke=0;strokeColor=#b85450;fillColor=#f8cecc;verticalAlign=top;align=left;spacingLeft=30;dashed=0;" parent="bl2LzJDID7CKvUJ2VzMa-29" vertex="1">
          <mxGeometry x="674" y="477" width="396" height="260" as="geometry" />
        </mxCell>
        <mxCell id="bl2LzJDID7CKvUJ2VzMa-37" value="Auto Scaling group" style="points=[[0,0],[0.25,0],[0.5,0],[0.75,0],[1,0],[1,0.25],[1,0.5],[1,0.75],[1,1],[0.75,1],[0.5,1],[0.25,1],[0,1],[0,0.75],[0,0.5],[0,0.25]];outlineConnect=0;gradientColor=none;html=1;whiteSpace=wrap;fontSize=12;fontStyle=0;container=1;pointerEvents=0;collapsible=0;recursiveResize=0;shape=mxgraph.aws4.groupCenter;grIcon=mxgraph.aws4.group_auto_scaling_group;grStroke=1;strokeColor=#D86613;fillColor=none;verticalAlign=top;align=center;fontColor=#D86613;dashed=1;spacingTop=25;movable=1;resizable=1;rotatable=1;deletable=1;editable=1;locked=0;connectable=1;" parent="bl2LzJDID7CKvUJ2VzMa-29" vertex="1">
          <mxGeometry x="700" y="513" width="240" height="210" as="geometry" />
        </mxCell>
        <mxCell id="bl2LzJDID7CKvUJ2VzMa-38" value="VPC" style="sketch=0;outlineConnect=0;gradientColor=none;html=1;whiteSpace=wrap;fontSize=12;fontStyle=0;shape=mxgraph.aws4.group;grIcon=mxgraph.aws4.group_vpc;strokeColor=#879196;fillColor=none;verticalAlign=top;align=left;spacingLeft=30;fontColor=#879196;dashed=1;movable=1;resizable=1;rotatable=1;deletable=1;editable=1;locked=0;connectable=1;" parent="bl2LzJDID7CKvUJ2VzMa-29" vertex="1">
          <mxGeometry x="340" y="80" width="770" height="700" as="geometry" />
        </mxCell>
        <mxCell id="bl2LzJDID7CKvUJ2VzMa-39" value="Public subnet" style="points=[[0,0],[0.25,0],[0.5,0],[0.75,0],[1,0],[1,0.25],[1,0.5],[1,0.75],[1,1],[0.75,1],[0.5,1],[0.25,1],[0,1],[0,0.75],[0,0.5],[0,0.25]];outlineConnect=0;gradientColor=none;html=1;whiteSpace=wrap;fontSize=12;fontStyle=0;container=1;pointerEvents=0;collapsible=0;recursiveResize=0;shape=mxgraph.aws4.group;grIcon=mxgraph.aws4.group_security_group;grStroke=0;strokeColor=#7AA116;fillColor=#F2F6E8;verticalAlign=top;align=left;spacingLeft=30;fontColor=#248814;dashed=0;" parent="bl2LzJDID7CKvUJ2VzMa-29" vertex="1">
          <mxGeometry x="432" y="365" width="130" height="130" as="geometry" />
        </mxCell>
        <mxCell id="-sPoOlOqM3EWKsqca_SR-1" value="" style="rounded=1;arcSize=9;align=left;spacingLeft=5;strokeColor=#4C9AFF;html=1;strokeWidth=2;fontSize=12;fillColor=none;movable=0;resizable=0;rotatable=0;deletable=0;editable=0;locked=1;connectable=0;" parent="bl2LzJDID7CKvUJ2VzMa-29" vertex="1">
          <mxGeometry x="18.5" y="900" width="1120" height="740" as="geometry" />
        </mxCell>
        <mxCell id="-sPoOlOqM3EWKsqca_SR-2" value="&lt;span style=&quot;font-size: 33px;&quot;&gt;사용자 클라이언트 다운로드 렌딩 페이지 배포 아키텍처&lt;/span&gt;" style="fillColor=none;strokeColor=none;html=1;fontSize=12;fontStyle=0;align=center;fontColor=#596780;fontStyle=1;fontSize=11" parent="bl2LzJDID7CKvUJ2VzMa-29" vertex="1">
          <mxGeometry x="40" y="860" width="1063" height="20" as="geometry" />
        </mxCell>
        <mxCell id="-sPoOlOqM3EWKsqca_SR-15" style="edgeStyle=orthogonalEdgeStyle;rounded=0;orthogonalLoop=1;jettySize=auto;html=1;" parent="bl2LzJDID7CKvUJ2VzMa-29" source="-sPoOlOqM3EWKsqca_SR-3" target="-sPoOlOqM3EWKsqca_SR-7" edge="1">
          <mxGeometry relative="1" as="geometry" />
        </mxCell>
        <mxCell id="-sPoOlOqM3EWKsqca_SR-3" value="window client" style="image;sketch=0;aspect=fixed;html=1;points=[];align=center;fontSize=12;image=img/lib/mscae/VirtualMachineWindows.svg;" parent="bl2LzJDID7CKvUJ2VzMa-29" vertex="1">
          <mxGeometry x="100" y="990" width="50" height="46" as="geometry" />
        </mxCell>
        <mxCell id="-sPoOlOqM3EWKsqca_SR-18" style="edgeStyle=orthogonalEdgeStyle;rounded=0;orthogonalLoop=1;jettySize=auto;html=1;" parent="bl2LzJDID7CKvUJ2VzMa-29" source="-sPoOlOqM3EWKsqca_SR-4" target="-sPoOlOqM3EWKsqca_SR-8" edge="1">
          <mxGeometry relative="1" as="geometry" />
        </mxCell>
        <mxCell id="-sPoOlOqM3EWKsqca_SR-4" value="Linux client" style="image;sketch=0;aspect=fixed;html=1;points=[];align=center;fontSize=12;image=img/lib/mscae/VM_Linux.svg;" parent="bl2LzJDID7CKvUJ2VzMa-29" vertex="1">
          <mxGeometry x="101" y="1120" width="50" height="46" as="geometry" />
        </mxCell>
        <mxCell id="-sPoOlOqM3EWKsqca_SR-21" style="edgeStyle=orthogonalEdgeStyle;rounded=0;orthogonalLoop=1;jettySize=auto;html=1;" parent="bl2LzJDID7CKvUJ2VzMa-29" source="-sPoOlOqM3EWKsqca_SR-5" target="-sPoOlOqM3EWKsqca_SR-9" edge="1">
          <mxGeometry relative="1" as="geometry" />
        </mxCell>
        <mxCell id="-sPoOlOqM3EWKsqca_SR-5" value="Mac client" style="dashed=0;outlineConnect=0;html=1;align=center;labelPosition=center;verticalLabelPosition=bottom;verticalAlign=top;shape=mxgraph.webicons.apple;fillColor=#807E7E;gradientColor=#1B1C1C" parent="bl2LzJDID7CKvUJ2VzMa-29" vertex="1">
          <mxGeometry x="100" y="1250" width="50" height="50" as="geometry" />
        </mxCell>
        <mxCell id="-sPoOlOqM3EWKsqca_SR-16" style="edgeStyle=orthogonalEdgeStyle;rounded=0;orthogonalLoop=1;jettySize=auto;html=1;" parent="bl2LzJDID7CKvUJ2VzMa-29" source="-sPoOlOqM3EWKsqca_SR-7" edge="1">
          <mxGeometry relative="1" as="geometry">
            <mxPoint x="150" y="1013" as="targetPoint" />
          </mxGeometry>
        </mxCell>
        <mxCell id="-sPoOlOqM3EWKsqca_SR-7" value="" style="shape=image;html=1;verticalAlign=top;verticalLabelPosition=bottom;labelBackgroundColor=#ffffff;imageAspect=0;aspect=fixed;image=https://cdn4.iconfinder.com/data/icons/ionicons/512/icon-social-github-128.png" parent="bl2LzJDID7CKvUJ2VzMa-29" vertex="1">
          <mxGeometry x="292" y="979.5" width="67" height="67" as="geometry" />
        </mxCell>
        <mxCell id="-sPoOlOqM3EWKsqca_SR-20" style="edgeStyle=orthogonalEdgeStyle;rounded=0;orthogonalLoop=1;jettySize=auto;html=1;" parent="bl2LzJDID7CKvUJ2VzMa-29" source="-sPoOlOqM3EWKsqca_SR-8" target="-sPoOlOqM3EWKsqca_SR-4" edge="1">
          <mxGeometry relative="1" as="geometry" />
        </mxCell>
        <mxCell id="-sPoOlOqM3EWKsqca_SR-8" value="" style="shape=image;html=1;verticalAlign=top;verticalLabelPosition=bottom;labelBackgroundColor=#ffffff;imageAspect=0;aspect=fixed;image=https://cdn4.iconfinder.com/data/icons/ionicons/512/icon-social-github-128.png" parent="bl2LzJDID7CKvUJ2VzMa-29" vertex="1">
          <mxGeometry x="292" y="1109.5" width="67" height="67" as="geometry" />
        </mxCell>
        <mxCell id="-sPoOlOqM3EWKsqca_SR-22" style="edgeStyle=orthogonalEdgeStyle;rounded=0;orthogonalLoop=1;jettySize=auto;html=1;" parent="bl2LzJDID7CKvUJ2VzMa-29" source="-sPoOlOqM3EWKsqca_SR-9" target="-sPoOlOqM3EWKsqca_SR-5" edge="1">
          <mxGeometry relative="1" as="geometry" />
        </mxCell>
        <mxCell id="-sPoOlOqM3EWKsqca_SR-9" value="" style="shape=image;html=1;verticalAlign=top;verticalLabelPosition=bottom;labelBackgroundColor=#ffffff;imageAspect=0;aspect=fixed;image=https://cdn4.iconfinder.com/data/icons/ionicons/512/icon-social-github-128.png" parent="bl2LzJDID7CKvUJ2VzMa-29" vertex="1">
          <mxGeometry x="292" y="1241.5" width="67" height="67" as="geometry" />
        </mxCell>
        <mxCell id="-sPoOlOqM3EWKsqca_SR-34" style="edgeStyle=orthogonalEdgeStyle;rounded=0;orthogonalLoop=1;jettySize=auto;html=1;" parent="bl2LzJDID7CKvUJ2VzMa-29" source="-sPoOlOqM3EWKsqca_SR-37" target="-sPoOlOqM3EWKsqca_SR-31" edge="1">
          <mxGeometry relative="1" as="geometry" />
        </mxCell>
        <mxCell id="-sPoOlOqM3EWKsqca_SR-24" value="" style="verticalLabelPosition=bottom;html=1;verticalAlign=top;align=center;strokeColor=none;fillColor=#00BEF2;shape=mxgraph.azure.worker_role;" parent="bl2LzJDID7CKvUJ2VzMa-29" vertex="1">
          <mxGeometry x="475.5" y="993" width="50" height="40" as="geometry" />
        </mxCell>
        <mxCell id="-sPoOlOqM3EWKsqca_SR-25" style="edgeStyle=orthogonalEdgeStyle;rounded=0;orthogonalLoop=1;jettySize=auto;html=1;entryX=0;entryY=0.5;entryDx=0;entryDy=0;entryPerimeter=0;" parent="bl2LzJDID7CKvUJ2VzMa-29" source="-sPoOlOqM3EWKsqca_SR-7" target="-sPoOlOqM3EWKsqca_SR-24" edge="1">
          <mxGeometry relative="1" as="geometry" />
        </mxCell>
        <mxCell id="-sPoOlOqM3EWKsqca_SR-35" style="edgeStyle=orthogonalEdgeStyle;rounded=0;orthogonalLoop=1;jettySize=auto;html=1;" parent="bl2LzJDID7CKvUJ2VzMa-29" source="-sPoOlOqM3EWKsqca_SR-39" target="-sPoOlOqM3EWKsqca_SR-32" edge="1">
          <mxGeometry relative="1" as="geometry" />
        </mxCell>
        <mxCell id="-sPoOlOqM3EWKsqca_SR-26" value="" style="verticalLabelPosition=bottom;html=1;verticalAlign=top;align=center;strokeColor=none;fillColor=#00BEF2;shape=mxgraph.azure.worker_role;" parent="bl2LzJDID7CKvUJ2VzMa-29" vertex="1">
          <mxGeometry x="475.5" y="1123" width="50" height="40" as="geometry" />
        </mxCell>
        <mxCell id="-sPoOlOqM3EWKsqca_SR-36" style="edgeStyle=orthogonalEdgeStyle;rounded=0;orthogonalLoop=1;jettySize=auto;html=1;" parent="bl2LzJDID7CKvUJ2VzMa-29" source="-sPoOlOqM3EWKsqca_SR-41" target="-sPoOlOqM3EWKsqca_SR-33" edge="1">
          <mxGeometry relative="1" as="geometry" />
        </mxCell>
        <mxCell id="-sPoOlOqM3EWKsqca_SR-27" value="" style="verticalLabelPosition=bottom;html=1;verticalAlign=top;align=center;strokeColor=none;fillColor=#00BEF2;shape=mxgraph.azure.worker_role;" parent="bl2LzJDID7CKvUJ2VzMa-29" vertex="1">
          <mxGeometry x="475.5" y="1255" width="50" height="40" as="geometry" />
        </mxCell>
        <mxCell id="-sPoOlOqM3EWKsqca_SR-28" style="edgeStyle=orthogonalEdgeStyle;rounded=0;orthogonalLoop=1;jettySize=auto;html=1;entryX=0;entryY=0.5;entryDx=0;entryDy=0;entryPerimeter=0;" parent="bl2LzJDID7CKvUJ2VzMa-29" source="-sPoOlOqM3EWKsqca_SR-8" target="-sPoOlOqM3EWKsqca_SR-26" edge="1">
          <mxGeometry relative="1" as="geometry" />
        </mxCell>
        <mxCell id="-sPoOlOqM3EWKsqca_SR-29" style="edgeStyle=orthogonalEdgeStyle;rounded=0;orthogonalLoop=1;jettySize=auto;html=1;entryX=0;entryY=0.5;entryDx=0;entryDy=0;entryPerimeter=0;" parent="bl2LzJDID7CKvUJ2VzMa-29" source="-sPoOlOqM3EWKsqca_SR-9" target="-sPoOlOqM3EWKsqca_SR-27" edge="1">
          <mxGeometry relative="1" as="geometry" />
        </mxCell>
        <mxCell id="-sPoOlOqM3EWKsqca_SR-38" value="" style="edgeStyle=orthogonalEdgeStyle;rounded=0;orthogonalLoop=1;jettySize=auto;html=1;" parent="bl2LzJDID7CKvUJ2VzMa-29" source="-sPoOlOqM3EWKsqca_SR-24" target="-sPoOlOqM3EWKsqca_SR-37" edge="1">
          <mxGeometry relative="1" as="geometry">
            <mxPoint x="585" y="1013" as="sourcePoint" />
            <mxPoint x="724" y="1013" as="targetPoint" />
          </mxGeometry>
        </mxCell>
        <mxCell id="-sPoOlOqM3EWKsqca_SR-52" style="edgeStyle=orthogonalEdgeStyle;rounded=0;orthogonalLoop=1;jettySize=auto;html=1;" parent="bl2LzJDID7CKvUJ2VzMa-29" source="-sPoOlOqM3EWKsqca_SR-37" target="-sPoOlOqM3EWKsqca_SR-46" edge="1">
          <mxGeometry relative="1" as="geometry">
            <Array as="points">
              <mxPoint x="655" y="960" />
              <mxPoint x="870" y="960" />
              <mxPoint x="870" y="1008" />
            </Array>
          </mxGeometry>
        </mxCell>
        <mxCell id="-sPoOlOqM3EWKsqca_SR-37" value="" style="shape=image;html=1;verticalAlign=top;verticalLabelPosition=bottom;labelBackgroundColor=#ffffff;imageAspect=0;aspect=fixed;image=https://cdn0.iconfinder.com/data/icons/evericons-24px-vol-1/24/folder-zip-128.png" parent="bl2LzJDID7CKvUJ2VzMa-29" vertex="1">
          <mxGeometry x="636" y="994" width="38" height="38" as="geometry" />
        </mxCell>
        <mxCell id="-sPoOlOqM3EWKsqca_SR-40" value="" style="edgeStyle=orthogonalEdgeStyle;rounded=0;orthogonalLoop=1;jettySize=auto;html=1;" parent="bl2LzJDID7CKvUJ2VzMa-29" source="-sPoOlOqM3EWKsqca_SR-26" target="-sPoOlOqM3EWKsqca_SR-39" edge="1">
          <mxGeometry relative="1" as="geometry">
            <mxPoint x="585" y="1143" as="sourcePoint" />
            <mxPoint x="724" y="1143" as="targetPoint" />
          </mxGeometry>
        </mxCell>
        <mxCell id="-sPoOlOqM3EWKsqca_SR-53" style="edgeStyle=orthogonalEdgeStyle;rounded=0;orthogonalLoop=1;jettySize=auto;html=1;" parent="bl2LzJDID7CKvUJ2VzMa-29" source="-sPoOlOqM3EWKsqca_SR-39" target="-sPoOlOqM3EWKsqca_SR-48" edge="1">
          <mxGeometry relative="1" as="geometry">
            <Array as="points">
              <mxPoint x="655" y="1090" />
              <mxPoint x="870" y="1090" />
              <mxPoint x="870" y="1142" />
            </Array>
          </mxGeometry>
        </mxCell>
        <mxCell id="-sPoOlOqM3EWKsqca_SR-39" value="" style="shape=image;html=1;verticalAlign=top;verticalLabelPosition=bottom;labelBackgroundColor=#ffffff;imageAspect=0;aspect=fixed;image=https://cdn0.iconfinder.com/data/icons/evericons-24px-vol-1/24/folder-zip-128.png" parent="bl2LzJDID7CKvUJ2VzMa-29" vertex="1">
          <mxGeometry x="636" y="1123" width="38" height="38" as="geometry" />
        </mxCell>
        <mxCell id="-sPoOlOqM3EWKsqca_SR-42" value="" style="edgeStyle=orthogonalEdgeStyle;rounded=0;orthogonalLoop=1;jettySize=auto;html=1;" parent="bl2LzJDID7CKvUJ2VzMa-29" source="-sPoOlOqM3EWKsqca_SR-27" target="-sPoOlOqM3EWKsqca_SR-41" edge="1">
          <mxGeometry relative="1" as="geometry">
            <mxPoint x="585" y="1275" as="sourcePoint" />
            <mxPoint x="724" y="1275" as="targetPoint" />
          </mxGeometry>
        </mxCell>
        <mxCell id="-sPoOlOqM3EWKsqca_SR-54" value="" style="edgeStyle=orthogonalEdgeStyle;rounded=0;orthogonalLoop=1;jettySize=auto;html=1;" parent="bl2LzJDID7CKvUJ2VzMa-29" source="-sPoOlOqM3EWKsqca_SR-41" edge="1">
          <mxGeometry relative="1" as="geometry">
            <mxPoint x="930" y="1280" as="targetPoint" />
            <Array as="points">
              <mxPoint x="655" y="1230" />
              <mxPoint x="860" y="1230" />
              <mxPoint x="860" y="1281" />
              <mxPoint x="930" y="1281" />
            </Array>
          </mxGeometry>
        </mxCell>
        <mxCell id="-sPoOlOqM3EWKsqca_SR-41" value="" style="shape=image;html=1;verticalAlign=top;verticalLabelPosition=bottom;labelBackgroundColor=#ffffff;imageAspect=0;aspect=fixed;image=https://cdn0.iconfinder.com/data/icons/evericons-24px-vol-1/24/folder-zip-128.png" parent="bl2LzJDID7CKvUJ2VzMa-29" vertex="1">
          <mxGeometry x="636" y="1256" width="38" height="38" as="geometry" />
        </mxCell>
        <mxCell id="-sPoOlOqM3EWKsqca_SR-76" style="edgeStyle=orthogonalEdgeStyle;rounded=0;orthogonalLoop=1;jettySize=auto;html=1;" parent="bl2LzJDID7CKvUJ2VzMa-29" source="-sPoOlOqM3EWKsqca_SR-46" edge="1">
          <mxGeometry relative="1" as="geometry">
            <mxPoint x="130" y="1460" as="targetPoint" />
            <Array as="points">
              <mxPoint x="962" y="960" />
              <mxPoint x="1120" y="960" />
              <mxPoint x="1120" y="1500" />
              <mxPoint x="130" y="1500" />
            </Array>
          </mxGeometry>
        </mxCell>
        <mxCell id="-sPoOlOqM3EWKsqca_SR-46" value="V1.0" style="sketch=0;outlineConnect=0;fontColor=#232F3E;gradientColor=none;fillColor=#7AA116;strokeColor=none;dashed=0;verticalLabelPosition=bottom;verticalAlign=top;align=center;html=1;fontSize=12;fontStyle=0;aspect=fixed;pointerEvents=1;shape=mxgraph.aws4.bucket;" parent="bl2LzJDID7CKvUJ2VzMa-29" vertex="1">
          <mxGeometry x="934" y="979.5" width="55.77" height="58" as="geometry" />
        </mxCell>
        <mxCell id="-sPoOlOqM3EWKsqca_SR-47" value="V2.0" style="sketch=0;outlineConnect=0;fillColor=#f8cecc;strokeColor=#b85450;dashed=0;verticalLabelPosition=bottom;verticalAlign=top;align=center;html=1;fontSize=12;fontStyle=0;aspect=fixed;pointerEvents=1;shape=mxgraph.aws4.bucket;" parent="bl2LzJDID7CKvUJ2VzMa-29" vertex="1">
          <mxGeometry x="1020" y="979.5" width="55.77" height="58" as="geometry" />
        </mxCell>
        <mxCell id="-sPoOlOqM3EWKsqca_SR-77" style="edgeStyle=orthogonalEdgeStyle;rounded=0;orthogonalLoop=1;jettySize=auto;html=1;" parent="bl2LzJDID7CKvUJ2VzMa-29" source="-sPoOlOqM3EWKsqca_SR-48" edge="1">
          <mxGeometry relative="1" as="geometry">
            <mxPoint x="130" y="1460" as="targetPoint" />
            <Array as="points">
              <mxPoint x="962" y="1090" />
              <mxPoint x="1120" y="1090" />
              <mxPoint x="1120" y="1500" />
              <mxPoint x="130" y="1500" />
            </Array>
          </mxGeometry>
        </mxCell>
        <mxCell id="-sPoOlOqM3EWKsqca_SR-48" value="V1.0" style="sketch=0;outlineConnect=0;fontColor=#232F3E;gradientColor=none;fillColor=#7AA116;strokeColor=none;dashed=0;verticalLabelPosition=bottom;verticalAlign=top;align=center;html=1;fontSize=12;fontStyle=0;aspect=fixed;pointerEvents=1;shape=mxgraph.aws4.bucket;" parent="bl2LzJDID7CKvUJ2VzMa-29" vertex="1">
          <mxGeometry x="934.12" y="1113" width="55.77" height="58" as="geometry" />
        </mxCell>
        <mxCell id="-sPoOlOqM3EWKsqca_SR-49" value="V2.0" style="sketch=0;outlineConnect=0;fillColor=#f8cecc;strokeColor=#b85450;dashed=0;verticalLabelPosition=bottom;verticalAlign=top;align=center;html=1;fontSize=12;fontStyle=0;aspect=fixed;pointerEvents=1;shape=mxgraph.aws4.bucket;" parent="bl2LzJDID7CKvUJ2VzMa-29" vertex="1">
          <mxGeometry x="1020.12" y="1113" width="55.77" height="58" as="geometry" />
        </mxCell>
        <mxCell id="-sPoOlOqM3EWKsqca_SR-65" style="edgeStyle=orthogonalEdgeStyle;rounded=0;orthogonalLoop=1;jettySize=auto;html=1;" parent="bl2LzJDID7CKvUJ2VzMa-29" source="-sPoOlOqM3EWKsqca_SR-59" target="-sPoOlOqM3EWKsqca_SR-63" edge="1">
          <mxGeometry relative="1" as="geometry" />
        </mxCell>
        <mxCell id="-sPoOlOqM3EWKsqca_SR-59" value="공통" style="image;points=[];aspect=fixed;html=1;align=center;shadow=0;dashed=0;image=img/lib/allied_telesis/computer_and_terminals/Personal_Computer.svg;" parent="bl2LzJDID7CKvUJ2VzMa-29" vertex="1">
          <mxGeometry x="104" y="1360" width="45.6" height="61.800000000000004" as="geometry" />
        </mxCell>
        <mxCell id="-sPoOlOqM3EWKsqca_SR-63" value="" style="shape=image;html=1;verticalAlign=top;verticalLabelPosition=bottom;labelBackgroundColor=#ffffff;imageAspect=0;aspect=fixed;image=https://cdn4.iconfinder.com/data/icons/ionicons/512/icon-social-github-128.png" parent="bl2LzJDID7CKvUJ2VzMa-29" vertex="1">
          <mxGeometry x="292" y="1357.4" width="67" height="67" as="geometry" />
        </mxCell>
        <mxCell id="-sPoOlOqM3EWKsqca_SR-69" style="edgeStyle=orthogonalEdgeStyle;rounded=0;orthogonalLoop=1;jettySize=auto;html=1;" parent="bl2LzJDID7CKvUJ2VzMa-29" source="-sPoOlOqM3EWKsqca_SR-64" target="-sPoOlOqM3EWKsqca_SR-68" edge="1">
          <mxGeometry relative="1" as="geometry" />
        </mxCell>
        <mxCell id="-sPoOlOqM3EWKsqca_SR-64" value="" style="verticalLabelPosition=bottom;html=1;verticalAlign=top;align=center;strokeColor=none;fillColor=#00BEF2;shape=mxgraph.azure.worker_role;" parent="bl2LzJDID7CKvUJ2VzMa-29" vertex="1">
          <mxGeometry x="475.5" y="1370.9" width="50" height="40" as="geometry" />
        </mxCell>
        <mxCell id="-sPoOlOqM3EWKsqca_SR-66" style="edgeStyle=orthogonalEdgeStyle;rounded=0;orthogonalLoop=1;jettySize=auto;html=1;entryX=0;entryY=0.5;entryDx=0;entryDy=0;entryPerimeter=0;" parent="bl2LzJDID7CKvUJ2VzMa-29" source="-sPoOlOqM3EWKsqca_SR-63" target="-sPoOlOqM3EWKsqca_SR-64" edge="1">
          <mxGeometry relative="1" as="geometry" />
        </mxCell>
        <mxCell id="-sPoOlOqM3EWKsqca_SR-72" style="edgeStyle=orthogonalEdgeStyle;rounded=0;orthogonalLoop=1;jettySize=auto;html=1;" parent="bl2LzJDID7CKvUJ2VzMa-29" source="-sPoOlOqM3EWKsqca_SR-68" target="-sPoOlOqM3EWKsqca_SR-70" edge="1">
          <mxGeometry relative="1" as="geometry" />
        </mxCell>
        <mxCell id="-sPoOlOqM3EWKsqca_SR-73" style="edgeStyle=orthogonalEdgeStyle;rounded=0;orthogonalLoop=1;jettySize=auto;html=1;" parent="bl2LzJDID7CKvUJ2VzMa-29" source="-sPoOlOqM3EWKsqca_SR-68" target="-sPoOlOqM3EWKsqca_SR-71" edge="1">
          <mxGeometry relative="1" as="geometry">
            <Array as="points">
              <mxPoint x="655" y="1340" />
              <mxPoint x="860" y="1340" />
              <mxPoint x="860" y="1391" />
            </Array>
          </mxGeometry>
        </mxCell>
        <mxCell id="-sPoOlOqM3EWKsqca_SR-68" value="" style="dashed=0;outlineConnect=0;html=1;align=center;labelPosition=center;verticalLabelPosition=bottom;verticalAlign=top;shape=mxgraph.weblogos.html5" parent="bl2LzJDID7CKvUJ2VzMa-29" vertex="1">
          <mxGeometry x="640.84" y="1370.9" width="28.32" height="40" as="geometry" />
        </mxCell>
        <mxCell id="-sPoOlOqM3EWKsqca_SR-70" value="&#xa;&lt;span style=&quot;color: rgb(35, 47, 62); font-family: Helvetica; font-size: 12px; font-style: normal; font-variant-ligatures: normal; font-variant-caps: normal; font-weight: 400; letter-spacing: normal; orphans: 2; text-align: center; text-indent: 0px; text-transform: none; widows: 2; word-spacing: 0px; -webkit-text-stroke-width: 0px; white-space: nowrap; background-color: rgb(251, 251, 251); text-decoration-thickness: initial; text-decoration-style: initial; text-decoration-color: initial; display: inline !important; float: none;&quot;&gt;S3 Bucket&lt;/span&gt;&#xa;&#xa;" style="sketch=0;outlineConnect=0;fontColor=#232F3E;gradientColor=none;fillColor=#7AA116;strokeColor=none;dashed=0;verticalLabelPosition=bottom;verticalAlign=top;align=center;html=1;fontSize=12;fontStyle=0;aspect=fixed;pointerEvents=1;shape=mxgraph.aws4.bucket;" parent="bl2LzJDID7CKvUJ2VzMa-29" vertex="1">
          <mxGeometry x="724.12" y="1361.9" width="55.77" height="58" as="geometry" />
        </mxCell>
        <mxCell id="-sPoOlOqM3EWKsqca_SR-83" style="edgeStyle=orthogonalEdgeStyle;rounded=0;orthogonalLoop=1;jettySize=auto;html=1;" parent="bl2LzJDID7CKvUJ2VzMa-29" source="-sPoOlOqM3EWKsqca_SR-71" target="-sPoOlOqM3EWKsqca_SR-85" edge="1">
          <mxGeometry relative="1" as="geometry">
            <mxPoint x="1005.0049999999997" y="1530" as="targetPoint" />
          </mxGeometry>
        </mxCell>
        <mxCell id="-sPoOlOqM3EWKsqca_SR-71" value="V1.0" style="sketch=0;outlineConnect=0;fontColor=#232F3E;gradientColor=none;fillColor=#7AA116;strokeColor=none;dashed=0;verticalLabelPosition=bottom;verticalAlign=top;align=center;html=1;fontSize=12;fontStyle=0;aspect=fixed;pointerEvents=1;shape=mxgraph.aws4.bucket;" parent="bl2LzJDID7CKvUJ2VzMa-29" vertex="1">
          <mxGeometry x="977.12" y="1361.9" width="55.77" height="58" as="geometry" />
        </mxCell>
        <mxCell id="-sPoOlOqM3EWKsqca_SR-88" style="edgeStyle=orthogonalEdgeStyle;rounded=0;orthogonalLoop=1;jettySize=auto;html=1;entryX=0.065;entryY=0.522;entryDx=0;entryDy=0;entryPerimeter=0;" parent="bl2LzJDID7CKvUJ2VzMa-29" source="-sPoOlOqM3EWKsqca_SR-79" target="-sPoOlOqM3EWKsqca_SR-3" edge="1">
          <mxGeometry relative="1" as="geometry">
            <mxPoint x="60" y="1020" as="targetPoint" />
            <Array as="points">
              <mxPoint x="60" y="1563" />
              <mxPoint x="60" y="1014" />
            </Array>
          </mxGeometry>
        </mxCell>
        <mxCell id="-sPoOlOqM3EWKsqca_SR-89" style="edgeStyle=orthogonalEdgeStyle;rounded=0;orthogonalLoop=1;jettySize=auto;html=1;" parent="bl2LzJDID7CKvUJ2VzMa-29" source="-sPoOlOqM3EWKsqca_SR-79" target="-sPoOlOqM3EWKsqca_SR-5" edge="1">
          <mxGeometry relative="1" as="geometry">
            <mxPoint x="100" y="1560" as="targetPoint" />
            <Array as="points">
              <mxPoint x="60" y="1563" />
              <mxPoint x="60" y="1275" />
            </Array>
          </mxGeometry>
        </mxCell>
        <mxCell id="-sPoOlOqM3EWKsqca_SR-79" value="사내 QA팀" style="sketch=0;pointerEvents=1;shadow=0;dashed=0;html=1;strokeColor=none;fillColor=#505050;labelPosition=center;verticalLabelPosition=bottom;verticalAlign=top;outlineConnect=0;align=center;shape=mxgraph.office.concepts.best_practices;" parent="bl2LzJDID7CKvUJ2VzMa-29" vertex="1">
          <mxGeometry x="610" y="1536" width="53" height="53" as="geometry" />
        </mxCell>
        <mxCell id="-sPoOlOqM3EWKsqca_SR-84" style="edgeStyle=orthogonalEdgeStyle;rounded=0;orthogonalLoop=1;jettySize=auto;html=1;" parent="bl2LzJDID7CKvUJ2VzMa-29" source="-sPoOlOqM3EWKsqca_SR-80" target="-sPoOlOqM3EWKsqca_SR-79" edge="1">
          <mxGeometry relative="1" as="geometry" />
        </mxCell>
        <mxCell id="-sPoOlOqM3EWKsqca_SR-80" value="Download&lt;div&gt;안내 페이지&lt;/div&gt;" style="image;aspect=fixed;html=1;points=[];align=center;fontSize=12;image=img/lib/azure2/general/Download.svg;" parent="bl2LzJDID7CKvUJ2VzMa-29" vertex="1">
          <mxGeometry x="728.12" y="1537.5" width="47.76" height="50" as="geometry" />
        </mxCell>
        <mxCell id="-sPoOlOqM3EWKsqca_SR-87" style="edgeStyle=orthogonalEdgeStyle;rounded=0;orthogonalLoop=1;jettySize=auto;html=1;" parent="bl2LzJDID7CKvUJ2VzMa-29" source="-sPoOlOqM3EWKsqca_SR-85" target="-sPoOlOqM3EWKsqca_SR-86" edge="1">
          <mxGeometry relative="1" as="geometry" />
        </mxCell>
        <mxCell id="-sPoOlOqM3EWKsqca_SR-85" value="Download&lt;div&gt;안내 페이지&lt;/div&gt;" style="image;aspect=fixed;html=1;points=[];align=center;fontSize=12;image=img/lib/azure2/general/Download.svg;" parent="bl2LzJDID7CKvUJ2VzMa-29" vertex="1">
          <mxGeometry x="981.12" y="1537.5" width="47.76" height="50" as="geometry" />
        </mxCell>
        <mxCell id="-sPoOlOqM3EWKsqca_SR-86" value="User" style="sketch=0;outlineConnect=0;fontColor=#232F3E;gradientColor=none;fillColor=#232F3D;strokeColor=none;dashed=0;verticalLabelPosition=bottom;verticalAlign=top;align=center;html=1;fontSize=12;fontStyle=0;aspect=fixed;pointerEvents=1;shape=mxgraph.aws4.authenticated_user;" parent="bl2LzJDID7CKvUJ2VzMa-29" vertex="1">
          <mxGeometry x="860" y="1539.5" width="46" height="46" as="geometry" />
        </mxCell>
        <mxCell id="-sPoOlOqM3EWKsqca_SR-90" style="edgeStyle=orthogonalEdgeStyle;rounded=0;orthogonalLoop=1;jettySize=auto;html=1;entryX=-0.005;entryY=0.522;entryDx=0;entryDy=0;entryPerimeter=0;" parent="bl2LzJDID7CKvUJ2VzMa-29" source="-sPoOlOqM3EWKsqca_SR-79" target="-sPoOlOqM3EWKsqca_SR-4" edge="1">
          <mxGeometry relative="1" as="geometry">
            <Array as="points">
              <mxPoint x="60" y="1563" />
              <mxPoint x="60" y="1144" />
            </Array>
          </mxGeometry>
        </mxCell>
        <mxCell id="nH6d2iywIJP5YFcQxb8M-0" style="edgeStyle=orthogonalEdgeStyle;rounded=0;orthogonalLoop=1;jettySize=auto;html=1;" parent="bl2LzJDID7CKvUJ2VzMa-29" source="-sPoOlOqM3EWKsqca_SR-31" target="-sPoOlOqM3EWKsqca_SR-80" edge="1">
          <mxGeometry relative="1" as="geometry">
            <Array as="points">
              <mxPoint x="840" y="1013" />
              <mxPoint x="840" y="1562.5" />
            </Array>
          </mxGeometry>
        </mxCell>
        <mxCell id="nH6d2iywIJP5YFcQxb8M-2" style="edgeStyle=orthogonalEdgeStyle;rounded=0;orthogonalLoop=1;jettySize=auto;html=1;" parent="bl2LzJDID7CKvUJ2VzMa-29" source="-sPoOlOqM3EWKsqca_SR-32" target="-sPoOlOqM3EWKsqca_SR-80" edge="1">
          <mxGeometry relative="1" as="geometry">
            <Array as="points">
              <mxPoint x="840" y="1142" />
              <mxPoint x="840" y="1563" />
            </Array>
          </mxGeometry>
        </mxCell>
        <mxCell id="nH6d2iywIJP5YFcQxb8M-3" style="edgeStyle=orthogonalEdgeStyle;rounded=0;orthogonalLoop=1;jettySize=auto;html=1;" parent="bl2LzJDID7CKvUJ2VzMa-29" source="-sPoOlOqM3EWKsqca_SR-33" target="-sPoOlOqM3EWKsqca_SR-80" edge="1">
          <mxGeometry relative="1" as="geometry">
            <Array as="points">
              <mxPoint x="840" y="1275" />
              <mxPoint x="840" y="1563" />
            </Array>
          </mxGeometry>
        </mxCell>
        <mxCell id="nH6d2iywIJP5YFcQxb8M-4" style="edgeStyle=orthogonalEdgeStyle;rounded=0;orthogonalLoop=1;jettySize=auto;html=1;entryX=0.979;entryY=0.55;entryDx=0;entryDy=0;entryPerimeter=0;" parent="bl2LzJDID7CKvUJ2VzMa-29" source="-sPoOlOqM3EWKsqca_SR-70" target="-sPoOlOqM3EWKsqca_SR-80" edge="1">
          <mxGeometry relative="1" as="geometry">
            <Array as="points">
              <mxPoint x="840" y="1391" />
              <mxPoint x="840" y="1563" />
              <mxPoint x="780" y="1563" />
              <mxPoint x="780" y="1565" />
            </Array>
          </mxGeometry>
        </mxCell>
        <mxCell id="xvKqIbw96GqFToLOWjSm-49" value="Local Dev Env" style="points=[[0,0],[0.25,0],[0.5,0],[0.75,0],[1,0],[1,0.25],[1,0.5],[1,0.75],[1,1],[0.75,1],[0.5,1],[0.25,1],[0,1],[0,0.75],[0,0.5],[0,0.25]];outlineConnect=0;gradientColor=none;html=1;whiteSpace=wrap;fontSize=12;fontStyle=0;container=1;pointerEvents=0;collapsible=0;recursiveResize=0;shape=mxgraph.aws4.group;grIcon=mxgraph.aws4.group_region;strokeColor=#00A4A6;fillColor=none;verticalAlign=top;align=left;spacingLeft=30;fontColor=#147EBA;dashed=1;" vertex="1" parent="bl2LzJDID7CKvUJ2VzMa-29">
          <mxGeometry x="1266" y="433" width="180" height="220" as="geometry" />
        </mxCell>
        <mxCell id="xvKqIbw96GqFToLOWjSm-50" value="" style="sketch=0;aspect=fixed;pointerEvents=1;shadow=0;dashed=0;html=1;strokeColor=none;labelPosition=center;verticalLabelPosition=bottom;verticalAlign=top;align=center;fillColor=#00188D;shape=mxgraph.mscae.enterprise.code_file" vertex="1" parent="xvKqIbw96GqFToLOWjSm-49">
          <mxGeometry x="47" y="49" width="41.65" height="42.5" as="geometry" />
        </mxCell>
        <mxCell id="xvKqIbw96GqFToLOWjSm-51" value="" style="verticalLabelPosition=bottom;html=1;verticalAlign=top;align=center;strokeColor=none;fillColor=#00BEF2;shape=mxgraph.azure.git_repository;" vertex="1" parent="xvKqIbw96GqFToLOWjSm-49">
          <mxGeometry x="92" y="53.370000000000005" width="40" height="33.75" as="geometry" />
        </mxCell>
        <mxCell id="xvKqIbw96GqFToLOWjSm-63" value="" style="image;html=1;image=img/lib/clip_art/computers/Netbook_128x128.png" vertex="1" parent="xvKqIbw96GqFToLOWjSm-49">
          <mxGeometry x="57.5" y="127" width="65" height="67" as="geometry" />
        </mxCell>
        <mxCell id="xvKqIbw96GqFToLOWjSm-57" value="" style="shape=image;html=1;verticalAlign=top;verticalLabelPosition=bottom;labelBackgroundColor=#ffffff;imageAspect=0;aspect=fixed;image=https://cdn1.iconfinder.com/data/icons/picons-social/57/github-128.png" vertex="1" parent="bl2LzJDID7CKvUJ2VzMa-29">
          <mxGeometry x="1316" y="253" width="64" height="64" as="geometry" />
        </mxCell>
        <mxCell id="xvKqIbw96GqFToLOWjSm-64" style="edgeStyle=orthogonalEdgeStyle;rounded=0;orthogonalLoop=1;jettySize=auto;html=1;entryX=0.5;entryY=1;entryDx=0;entryDy=0;" edge="1" parent="bl2LzJDID7CKvUJ2VzMa-29" source="xvKqIbw96GqFToLOWjSm-51" target="xvKqIbw96GqFToLOWjSm-57">
          <mxGeometry relative="1" as="geometry" />
        </mxCell>
        <mxCell id="xvKqIbw96GqFToLOWjSm-65" style="edgeStyle=orthogonalEdgeStyle;rounded=0;orthogonalLoop=1;jettySize=auto;html=1;entryX=1;entryY=0.5;entryDx=0;entryDy=0;entryPerimeter=0;" edge="1" parent="bl2LzJDID7CKvUJ2VzMa-29" source="xvKqIbw96GqFToLOWjSm-57" target="xvKqIbw96GqFToLOWjSm-51">
          <mxGeometry relative="1" as="geometry">
            <Array as="points">
              <mxPoint x="1418" y="285" />
              <mxPoint x="1418" y="503" />
            </Array>
          </mxGeometry>
        </mxCell>
        <mxCell id="xvKqIbw96GqFToLOWjSm-109" style="edgeStyle=orthogonalEdgeStyle;rounded=0;orthogonalLoop=1;jettySize=auto;html=1;" edge="1" parent="bl2LzJDID7CKvUJ2VzMa-29" source="xvKqIbw96GqFToLOWjSm-66" target="xvKqIbw96GqFToLOWjSm-107">
          <mxGeometry relative="1" as="geometry" />
        </mxCell>
        <mxCell id="xvKqIbw96GqFToLOWjSm-66" value="" style="verticalLabelPosition=bottom;html=1;verticalAlign=top;align=center;strokeColor=none;fillColor=#00BEF2;shape=mxgraph.azure.worker_role;" vertex="1" parent="bl2LzJDID7CKvUJ2VzMa-29">
          <mxGeometry x="1538" y="282" width="50" height="40" as="geometry" />
        </mxCell>
        <mxCell id="xvKqIbw96GqFToLOWjSm-70" style="edgeStyle=orthogonalEdgeStyle;rounded=0;orthogonalLoop=1;jettySize=auto;html=1;entryX=1;entryY=0.5;entryDx=0;entryDy=0;" edge="1" parent="bl2LzJDID7CKvUJ2VzMa-29" source="xvKqIbw96GqFToLOWjSm-69" target="xvKqIbw96GqFToLOWjSm-63">
          <mxGeometry relative="1" as="geometry" />
        </mxCell>
        <mxCell id="xvKqIbw96GqFToLOWjSm-69" value="" style="image;aspect=fixed;perimeter=ellipsePerimeter;html=1;align=center;shadow=0;dashed=0;spacingTop=3;image=img/lib/active_directory/internet_globe.svg;" vertex="1" parent="bl2LzJDID7CKvUJ2VzMa-29">
          <mxGeometry x="1537" y="569" width="50" height="50" as="geometry" />
        </mxCell>
        <mxCell id="xvKqIbw96GqFToLOWjSm-87" value="" style="sketch=0;points=[[0,0,0],[0.25,0,0],[0.5,0,0],[0.75,0,0],[1,0,0],[0,1,0],[0.25,1,0],[0.5,1,0],[0.75,1,0],[1,1,0],[0,0.25,0],[0,0.5,0],[0,0.75,0],[1,0.25,0],[1,0.5,0],[1,0.75,0]];outlineConnect=0;fontColor=#232F3E;fillColor=#ED7100;strokeColor=#ffffff;dashed=0;verticalLabelPosition=bottom;verticalAlign=top;align=center;html=1;fontSize=12;fontStyle=0;aspect=fixed;shape=mxgraph.aws4.resourceIcon;resIcon=mxgraph.aws4.lightsail;" vertex="1" parent="bl2LzJDID7CKvUJ2VzMa-29">
          <mxGeometry x="1716" y="79" width="33" height="33" as="geometry" />
        </mxCell>
        <mxCell id="xvKqIbw96GqFToLOWjSm-134" style="edgeStyle=orthogonalEdgeStyle;rounded=0;orthogonalLoop=1;jettySize=auto;html=1;" edge="1" parent="bl2LzJDID7CKvUJ2VzMa-29" source="xvKqIbw96GqFToLOWjSm-107" target="xvKqIbw96GqFToLOWjSm-115">
          <mxGeometry relative="1" as="geometry" />
        </mxCell>
        <mxCell id="xvKqIbw96GqFToLOWjSm-107" value="SSH Port 22" style="sketch=0;outlineConnect=0;fontColor=#232F3E;gradientColor=none;fillColor=#8C4FFF;strokeColor=none;dashed=0;verticalLabelPosition=bottom;verticalAlign=top;align=center;html=1;fontSize=12;fontStyle=0;aspect=fixed;pointerEvents=1;shape=mxgraph.aws4.internet_gateway;" vertex="1" parent="bl2LzJDID7CKvUJ2VzMa-29">
          <mxGeometry x="1690" y="277" width="50" height="50" as="geometry" />
        </mxCell>
        <mxCell id="xvKqIbw96GqFToLOWjSm-110" value="/dev/api:80" style="sketch=0;outlineConnect=0;fontColor=#232F3E;gradientColor=none;fillColor=#8C4FFF;strokeColor=none;dashed=0;verticalLabelPosition=bottom;verticalAlign=top;align=center;html=1;fontSize=12;fontStyle=0;aspect=fixed;pointerEvents=1;shape=mxgraph.aws4.internet_gateway;" vertex="1" parent="bl2LzJDID7CKvUJ2VzMa-29">
          <mxGeometry x="1690" y="428" width="50" height="50" as="geometry" />
        </mxCell>
        <mxCell id="xvKqIbw96GqFToLOWjSm-111" style="edgeStyle=orthogonalEdgeStyle;rounded=0;orthogonalLoop=1;jettySize=auto;html=1;entryX=1;entryY=0.5;entryDx=0;entryDy=0;" edge="1" parent="bl2LzJDID7CKvUJ2VzMa-29" source="xvKqIbw96GqFToLOWjSm-110" target="xvKqIbw96GqFToLOWjSm-69">
          <mxGeometry relative="1" as="geometry">
            <mxPoint x="1630" y="590" as="targetPoint" />
          </mxGeometry>
        </mxCell>
        <mxCell id="xvKqIbw96GqFToLOWjSm-113" style="edgeStyle=orthogonalEdgeStyle;rounded=0;orthogonalLoop=1;jettySize=auto;html=1;" edge="1" parent="bl2LzJDID7CKvUJ2VzMa-29" source="xvKqIbw96GqFToLOWjSm-112" target="xvKqIbw96GqFToLOWjSm-110">
          <mxGeometry relative="1" as="geometry" />
        </mxCell>
        <mxCell id="xvKqIbw96GqFToLOWjSm-112" value="NginX" style="verticalLabelPosition=bottom;sketch=0;aspect=fixed;html=1;verticalAlign=top;strokeColor=none;align=center;outlineConnect=0;shape=mxgraph.citrix.web_server;" vertex="1" parent="bl2LzJDID7CKvUJ2VzMa-29">
          <mxGeometry x="1866" y="420.5" width="55.25" height="65" as="geometry" />
        </mxCell>
        <mxCell id="xvKqIbw96GqFToLOWjSm-114" value="" style="group" vertex="1" connectable="0" parent="bl2LzJDID7CKvUJ2VzMa-29">
          <mxGeometry x="2036" y="388" width="190" height="130" as="geometry" />
        </mxCell>
        <mxCell id="xvKqIbw96GqFToLOWjSm-115" value="&amp;nbsp; &amp;nbsp; &amp;nbsp;.NET Runtime" style="sketch=0;outlineConnect=0;gradientColor=none;html=1;whiteSpace=wrap;fontSize=12;fontStyle=0;shape=mxgraph.aws4.group;grIcon=mxgraph.aws4.group_vpc;strokeColor=#B6BABF;fillColor=none;verticalAlign=top;align=left;spacingLeft=30;fontColor=#B6BABF;dashed=0;" vertex="1" parent="xvKqIbw96GqFToLOWjSm-114">
          <mxGeometry x="10" width="180" height="130" as="geometry" />
        </mxCell>
        <mxCell id="xvKqIbw96GqFToLOWjSm-116" value=".Net Web API Application" style="outlineConnect=0;dashed=0;verticalLabelPosition=bottom;verticalAlign=top;align=center;html=1;shape=mxgraph.aws3.android;fillColor=#115193;gradientColor=none;" vertex="1" parent="xvKqIbw96GqFToLOWjSm-114">
          <mxGeometry x="84" y="45" width="40" height="40" as="geometry" />
        </mxCell>
        <mxCell id="xvKqIbw96GqFToLOWjSm-117" value=":5000" style="fontStyle=0;labelPosition=right;verticalLabelPosition=middle;align=left;verticalAlign=middle;spacingLeft=2;" vertex="1" parent="xvKqIbw96GqFToLOWjSm-114">
          <mxGeometry y="50" width="30" height="30" as="geometry" />
        </mxCell>
        <mxCell id="xvKqIbw96GqFToLOWjSm-118" style="edgeStyle=orthogonalEdgeStyle;rounded=0;orthogonalLoop=1;jettySize=auto;html=1;" edge="1" parent="bl2LzJDID7CKvUJ2VzMa-29" source="xvKqIbw96GqFToLOWjSm-115" target="xvKqIbw96GqFToLOWjSm-112">
          <mxGeometry relative="1" as="geometry" />
        </mxCell>
        <mxCell id="xvKqIbw96GqFToLOWjSm-133" value="" style="outlineConnect=0;dashed=0;verticalLabelPosition=bottom;verticalAlign=top;align=center;html=1;shape=mxgraph.aws3.mysql_db_instance;fillColor=#2E73B8;gradientColor=none;" vertex="1" parent="bl2LzJDID7CKvUJ2VzMa-29">
          <mxGeometry x="2106" y="664.5" width="60" height="64.5" as="geometry" />
        </mxCell>
        <mxCell id="xvKqIbw96GqFToLOWjSm-135" style="edgeStyle=orthogonalEdgeStyle;rounded=0;orthogonalLoop=1;jettySize=auto;html=1;" edge="1" parent="bl2LzJDID7CKvUJ2VzMa-29" source="xvKqIbw96GqFToLOWjSm-115" target="xvKqIbw96GqFToLOWjSm-133">
          <mxGeometry relative="1" as="geometry" />
        </mxCell>
        <mxCell id="xvKqIbw96GqFToLOWjSm-137" value="&lt;span style=&quot;font-size: 33px;&quot;&gt;API&lt;/span&gt;" style="fillColor=none;strokeColor=none;html=1;fontSize=12;fontStyle=0;align=center;fontColor=#596780;fontStyle=1;fontSize=11" vertex="1" parent="bl2LzJDID7CKvUJ2VzMa-29">
          <mxGeometry x="1222" y="26" width="1063" height="20" as="geometry" />
        </mxCell>
        <mxCell id="xvKqIbw96GqFToLOWjSm-141" style="edgeStyle=orthogonalEdgeStyle;rounded=0;orthogonalLoop=1;jettySize=auto;html=1;entryX=0.5;entryY=0;entryDx=0;entryDy=0;entryPerimeter=0;" edge="1" parent="bl2LzJDID7CKvUJ2VzMa-29" source="xvKqIbw96GqFToLOWjSm-57" target="xvKqIbw96GqFToLOWjSm-66">
          <mxGeometry relative="1" as="geometry">
            <Array as="points">
              <mxPoint x="1348" y="180" />
              <mxPoint x="1563" y="180" />
            </Array>
          </mxGeometry>
        </mxCell>
        <mxCell id="bl2LzJDID7CKvUJ2VzMa-40" value="아이콘" style="" parent="0" />
        <mxCell id="bl2LzJDID7CKvUJ2VzMa-41" value="Destop client" style="sketch=0;aspect=fixed;pointerEvents=1;shadow=0;dashed=0;html=1;strokeColor=none;labelPosition=center;verticalLabelPosition=bottom;verticalAlign=top;align=center;fillColor=#00188D;shape=mxgraph.mscae.enterprise.application" parent="bl2LzJDID7CKvUJ2VzMa-40" vertex="1">
          <mxGeometry x="79" y="396" width="50" height="34" as="geometry" />
        </mxCell>
        <mxCell id="bl2LzJDID7CKvUJ2VzMa-42" value="Login user token" style="outlineConnect=0;dashed=0;verticalLabelPosition=bottom;verticalAlign=top;align=center;html=1;shape=mxgraph.aws3.saml_token;fillColor=#D2D3D3;gradientColor=none;" parent="bl2LzJDID7CKvUJ2VzMa-40" vertex="1">
          <mxGeometry x="205" y="396" width="30" height="34.55" as="geometry" />
        </mxCell>
        <mxCell id="bl2LzJDID7CKvUJ2VzMa-43" value="Internet Gateway" style="sketch=0;outlineConnect=0;fontColor=#232F3E;gradientColor=none;fillColor=#8C4FFF;strokeColor=none;dashed=0;verticalLabelPosition=bottom;verticalAlign=top;align=center;html=1;fontSize=12;fontStyle=0;aspect=fixed;pointerEvents=1;shape=mxgraph.aws4.internet_gateway;" parent="bl2LzJDID7CKvUJ2VzMa-40" vertex="1">
          <mxGeometry x="321" y="392.95000000000005" width="37.05" height="37.05" as="geometry" />
        </mxCell>
        <mxCell id="bl2LzJDID7CKvUJ2VzMa-44" value="&lt;div&gt;&lt;br&gt;&lt;/div&gt;&lt;div&gt;&lt;br&gt;&lt;/div&gt;&lt;div&gt;&lt;br&gt;&lt;/div&gt;&lt;div&gt;&lt;br&gt;&lt;/div&gt;&lt;div&gt;&lt;br&gt;&lt;/div&gt;ALB" style="points=[];aspect=fixed;html=1;align=center;shadow=0;dashed=0;fillColor=#FF6A00;strokeColor=none;shape=mxgraph.alibaba_cloud.alb_application_load_balancer_01;" parent="bl2LzJDID7CKvUJ2VzMa-40" vertex="1">
          <mxGeometry x="468" y="396" width="60.4" height="51.23" as="geometry" />
        </mxCell>
        <mxCell id="bl2LzJDID7CKvUJ2VzMa-45" value="API server(EC2)" style="outlineConnect=0;dashed=0;verticalLabelPosition=bottom;verticalAlign=top;align=center;html=1;shape=mxgraph.aws3.ec2;fillColor=#F58534;gradientColor=none;fontSize=10;" parent="bl2LzJDID7CKvUJ2VzMa-40" vertex="1">
          <mxGeometry x="734" y="265" width="50" height="27.95" as="geometry" />
        </mxCell>
        <mxCell id="bl2LzJDID7CKvUJ2VzMa-46" value="Scaled Instances" style="outlineConnect=0;dashed=0;verticalLabelPosition=bottom;verticalAlign=top;align=center;html=1;shape=mxgraph.aws3.ec2;fillColor=#f5f5f5;fontColor=#333333;strokeColor=#666666;fontSize=10;" parent="bl2LzJDID7CKvUJ2VzMa-40" vertex="1">
          <mxGeometry x="850" y="265" width="50" height="27.95" as="geometry" />
        </mxCell>
        <mxCell id="bl2LzJDID7CKvUJ2VzMa-47" value="RDS Origin" style="outlineConnect=0;dashed=0;verticalLabelPosition=bottom;verticalAlign=top;align=center;html=1;shape=mxgraph.aws3.rds_db_instance;fillColor=#2E73B8;gradientColor=none;" parent="bl2LzJDID7CKvUJ2VzMa-40" vertex="1">
          <mxGeometry x="990" y="259.97" width="34" height="38" as="geometry" />
        </mxCell>
        <mxCell id="bl2LzJDID7CKvUJ2VzMa-48" value="API server(EC2)" style="outlineConnect=0;dashed=0;verticalLabelPosition=bottom;verticalAlign=top;align=center;html=1;shape=mxgraph.aws3.ec2;fillColor=#F58534;gradientColor=none;fontSize=10;" parent="bl2LzJDID7CKvUJ2VzMa-40" vertex="1">
          <mxGeometry x="734" y="604.03" width="50" height="27.95" as="geometry" />
        </mxCell>
        <mxCell id="bl2LzJDID7CKvUJ2VzMa-49" value="Scaled Instances" style="outlineConnect=0;dashed=0;verticalLabelPosition=bottom;verticalAlign=top;align=center;html=1;shape=mxgraph.aws3.ec2;fillColor=#f5f5f5;fontColor=#333333;strokeColor=#666666;fontSize=10;" parent="bl2LzJDID7CKvUJ2VzMa-40" vertex="1">
          <mxGeometry x="850" y="604.03" width="50" height="27.95" as="geometry" />
        </mxCell>
        <mxCell id="bl2LzJDID7CKvUJ2VzMa-50" value="RDS Origin" style="outlineConnect=0;dashed=0;verticalLabelPosition=bottom;verticalAlign=top;align=center;html=1;shape=mxgraph.aws3.rds_db_instance;fillColor=#2E73B8;gradientColor=none;" parent="bl2LzJDID7CKvUJ2VzMa-40" vertex="1">
          <mxGeometry x="990" y="599" width="34" height="38" as="geometry" />
        </mxCell>
        <mxCell id="bl2LzJDID7CKvUJ2VzMa-51" value="화살표" style="" parent="0" />
        <mxCell id="bl2LzJDID7CKvUJ2VzMa-52" style="edgeStyle=orthogonalEdgeStyle;rounded=0;orthogonalLoop=1;jettySize=auto;html=1;" parent="bl2LzJDID7CKvUJ2VzMa-51" edge="1">
          <mxGeometry relative="1" as="geometry">
            <mxPoint x="190" y="413" as="targetPoint" />
            <mxPoint x="129" y="413" as="sourcePoint" />
          </mxGeometry>
        </mxCell>
        <mxCell id="bl2LzJDID7CKvUJ2VzMa-53" style="edgeStyle=orthogonalEdgeStyle;rounded=0;orthogonalLoop=1;jettySize=auto;html=1;" parent="bl2LzJDID7CKvUJ2VzMa-51" edge="1">
          <mxGeometry relative="1" as="geometry">
            <mxPoint x="300" y="413.2750000000001" as="targetPoint" />
            <mxPoint x="235" y="413.30769230769215" as="sourcePoint" />
          </mxGeometry>
        </mxCell>
        <mxCell id="bl2LzJDID7CKvUJ2VzMa-54" style="edgeStyle=orthogonalEdgeStyle;rounded=0;orthogonalLoop=1;jettySize=auto;html=1;" parent="bl2LzJDID7CKvUJ2VzMa-51" edge="1">
          <mxGeometry relative="1" as="geometry">
            <mxPoint x="420" y="411.47500000000014" as="targetPoint" />
            <mxPoint x="358.0499999999997" y="411.46153846153857" as="sourcePoint" />
          </mxGeometry>
        </mxCell>
        <mxCell id="bl2LzJDID7CKvUJ2VzMa-55" style="edgeStyle=orthogonalEdgeStyle;rounded=0;orthogonalLoop=1;jettySize=auto;html=1;" parent="bl2LzJDID7CKvUJ2VzMa-51" edge="1">
          <mxGeometry relative="1" as="geometry">
            <mxPoint x="700" y="279" as="targetPoint" />
            <Array as="points">
              <mxPoint x="590" y="422" />
              <mxPoint x="590" y="279" />
            </Array>
            <mxPoint x="528.4000000000001" y="421.6153846153845" as="sourcePoint" />
          </mxGeometry>
        </mxCell>
        <mxCell id="bl2LzJDID7CKvUJ2VzMa-56" style="edgeStyle=orthogonalEdgeStyle;rounded=0;orthogonalLoop=1;jettySize=auto;html=1;" parent="bl2LzJDID7CKvUJ2VzMa-51" edge="1">
          <mxGeometry relative="1" as="geometry">
            <mxPoint x="700" y="626" as="targetPoint" />
            <Array as="points">
              <mxPoint x="590" y="422" />
              <mxPoint x="590" y="626" />
            </Array>
            <mxPoint x="528.4000000000001" y="421.6153846153845" as="sourcePoint" />
          </mxGeometry>
        </mxCell>
        <mxCell id="bl2LzJDID7CKvUJ2VzMa-57" style="edgeStyle=orthogonalEdgeStyle;rounded=0;orthogonalLoop=1;jettySize=auto;html=1;entryX=0;entryY=0.5;entryDx=0;entryDy=0;entryPerimeter=0;" parent="bl2LzJDID7CKvUJ2VzMa-51" edge="1">
          <mxGeometry relative="1" as="geometry">
            <mxPoint x="940" y="279" as="sourcePoint" />
            <mxPoint x="990" y="278.97" as="targetPoint" />
          </mxGeometry>
        </mxCell>
        <mxCell id="bl2LzJDID7CKvUJ2VzMa-58" style="edgeStyle=orthogonalEdgeStyle;rounded=0;orthogonalLoop=1;jettySize=auto;html=1;entryX=0;entryY=0.5;entryDx=0;entryDy=0;entryPerimeter=0;" parent="bl2LzJDID7CKvUJ2VzMa-51" edge="1">
          <mxGeometry relative="1" as="geometry">
            <mxPoint x="940" y="618" as="sourcePoint" />
            <mxPoint x="990" y="618" as="targetPoint" />
          </mxGeometry>
        </mxCell>
      </root>
    </mxGraphModel>
  </diagram>
</mxfile>
